<svg width="74" height="74" viewBox="0 0 74 74" fill="none" xmlns="http://www.w3.org/2000/svg">
<path d="M14.9507 20.8125L14.3988 42.3256H14.0098L13.3144 20.8125H7.58112L6.9295 42.3158H6.50401L5.98855 20.8125H0L2.69886 53.7289H9.59189L10.1244 34.9706H10.545L11.0775 53.7289H17.8417L20.5405 20.8125H14.9507Z" fill="white"/>
<path d="M68.4102 20.8125L67.8583 42.3256H67.4692L66.7714 20.8125H61.0382L60.3866 42.3158H59.9611L59.4456 20.8125H53.4571L56.1559 53.7289H63.049L63.5839 34.9706H64.0021L64.537 53.7289H71.3011L74 20.8125H68.4102Z" fill="white"/>
<path d="M51.3874 32.3651H22.6093V37.5853H51.3874V32.3651Z" fill="white"/>
</svg>
