<svg width="1190" height="219" viewBox="0 0 1190 219" fill="none" xmlns="http://www.w3.org/2000/svg">
<path d="M1189.38 133.541V180.155C1189.38 202.889 1177.87 218.139 1151.68 218.139H1143.34C1119.46 218.139 1107.65 206.92 1107.65 185.049V125.49H1143.34V180.167C1143.34 183.619 1144.2 185.924 1147.07 185.924C1150.24 185.924 1151.11 183.619 1151.11 179.883V136.437C1151.11 129.533 1150.24 126.649 1144.77 121.766L1125.49 105.653C1113.11 95.2969 1107.65 83.4986 1107.65 67.3734V33.4089C1107.65 13.548 1118.3 0.0236439 1144.2 0.0236439H1152.55C1178.73 0.0236439 1187.08 13.2642 1187.08 30.5243V73.6982H1151.97V36.8373C1151.97 33.669 1150.82 32.2385 1148.23 32.2385C1145.64 32.2385 1144.48 33.6808 1144.48 36.8373V64.7726C1144.48 70.5299 1145.63 72.8352 1150.24 76.8546L1168.66 92.968C1183.33 105.05 1189.38 114.839 1189.38 133.541ZM414.076 36.2816H430.19V216.117H466.731V36.2816H482.845V2.00973H414.064V36.2816H414.076ZM136.626 216.129H195.11V181.857H173.18V111.115H195.11V77.1502H173.18V36.2816H195.11V2.00973H136.626V216.117V216.129ZM956.835 216.129H1015.32V181.857H993.388V111.115H1015.32V77.1502H993.388V36.2816H1015.32V2.00973H956.835V216.117V216.129ZM200.572 216.129H237.125V2.00973H200.572V216.117V216.129ZM288.078 179.718C288.078 183.607 286.872 185.688 284.023 185.688C280.914 185.688 279.968 183.607 279.968 179.718V38.0904C279.968 34.6384 281.126 32.6168 284.046 32.6168C286.966 32.6168 288.019 34.6265 288.019 38.0904V76.9847H322.551V34.2482C322.551 16.9763 314.488 0 285.134 0H281.103C252.328 0 243.119 16.9763 243.119 37.121V183.595C243.119 202.593 249.905 218.127 269.588 218.127C289.272 218.127 292.286 199.85 292.286 199.85L298.138 216.106H322.598V111.091H288.113L288.054 179.682L288.078 179.718ZM373.208 76.9847H365.441V2.00973H328.887V216.117H365.441V111.103H373.208V216.117H409.466V2.00973H373.208V76.9728V76.9847ZM700.794 2.00973L720.076 216.117H684.681L683.073 181.739H667.977L666.192 216.117H634.828L652.667 2.00973H700.794ZM681.477 147.503L677.233 56.6627H674.491L669.762 147.503H681.477ZM710.867 36.258H727.276V216.129H763.25V36.258H779.659V2.00973H710.879V36.258H710.867ZM827.42 0H821.095C793.467 0 783.111 16.4089 782.815 38.847V178.133C782.815 203.172 794.034 218.139 821.379 218.139H827.42C853.038 218.139 863.678 200.867 863.678 181.585V111.103H827.987V179.859C827.987 183.311 827.195 185.617 824.121 185.617C821.331 185.617 820.22 183.335 820.22 179.859V37.984C820.22 34.2482 821.71 32.5104 824.133 32.5104C826.557 32.5104 827.987 34.1064 827.987 37.984V76.9847H863.678V34.8157C863.678 13.8081 852.742 0 827.42 0ZM914.146 76.9847H906.379V2.00973H869.825V216.117H906.379V111.233H914.146V216.117H950.404V2.00973H914.146V76.9728V76.9847ZM1101.64 108.526V216.129H1065.09V113.739C1065.09 110.866 1063.65 108.845 1060.19 108.845H1057.32V216.129H1020.77V2.00973H1078.61C1091.27 2.00973 1101.35 10.0723 1101.35 27.6279V65.6474C1101.35 80.0347 1094.16 86.0758 1088.11 88.6648C1094.15 91.2538 1101.63 97.5904 1101.63 108.526H1101.64ZM1065.1 36.8254C1065.1 33.3734 1064.24 31.9311 1061.07 31.9311H1057.33V79.1717H1060.21C1063.08 79.1717 1065.1 77.4457 1065.1 74.2774V36.8254ZM93.6655 141.946H91.1356L86.6077 2.00973H49.3094L45.0653 141.875H42.299L38.9534 2.00973H0L17.5556 216.117H62.3963L65.872 94.091H68.5911L72.0667 216.117H116.068L133.624 2.00973H97.2593L93.6655 141.935V141.946ZM606.538 2.00973L602.944 141.935H600.414L595.886 2.00973H558.588L554.344 141.875H551.578L548.232 2.00973H509.279L526.834 216.117H571.675L575.151 94.091H577.87L581.345 216.117H625.347L642.902 2.00973H606.538Z" fill="#0222D0"/>
</svg>
