<svg width="973" height="184" viewBox="0 0 973 184" fill="none" xmlns="http://www.w3.org/2000/svg">
<path d="M14.5328 181.878L0 1.69356H31.1974L34.7663 119.4L39.7724 1.69356H67.8767L73.1206 120.126L76.6896 1.69356H105.746L91.2128 181.878H57.1508L53.3439 79.1906L49.2991 181.878H14.5328Z" fill="white"/>
<path d="M158.861 1.69356V29.3033H137.429V73.1422H155.53V101.72H137.429V153.794H159.575V181.888H107.887V1.69356H158.852H158.861Z" fill="white"/>
<path d="M194.103 181.878H163.858V1.69356H194.103V181.878Z" fill="white"/>
<path d="M222.446 183.581C206.485 183.581 198.862 169.781 198.862 153.794V31.2388C198.862 14.5259 206.961 0 230.773 0H234.818C258.878 0 265.778 14.2839 265.778 28.8195V69.2616H236.721V30.0291C236.721 27.1259 236.008 25.4324 233.153 25.4324C231.011 25.4324 229.822 26.884 229.822 30.0291V153.059C229.822 156.688 231.249 158.633 234.104 158.633C236.959 158.633 238.387 156.697 238.387 153.059V99.2907H232.191V75.8035H266.967V181.878H246.724C246.01 179.217 244.583 172.675 243.631 170.497C239.586 177.039 233.39 183.572 223.15 183.572H222.436L222.446 183.581Z" fill="white"/>
<path d="M271.745 1.69356H301.991V71.6906H308.424V1.69356H338.432V181.878H308.424V103.413H301.991V181.878H271.745V1.69356Z" fill="white"/>
<path d="M356.285 29.3033H342.714V1.69356H399.636V29.3033H386.055V181.878H356.285V29.3033Z" fill="white"/>
<path d="M429.483 181.878L414.95 1.69356H446.147L449.716 119.4L454.713 1.69356H482.817L488.061 120.126L491.63 1.69356H520.686L506.153 181.878H472.091L468.284 79.1906L464.239 181.878H429.464H429.483Z" fill="white"/>
<path d="M551.427 149.43H541.186L539.521 181.888H513.558L528.319 1.69356H566.426L582.386 181.878H553.092L551.427 149.42V149.43ZM546.421 54.4938L542.852 123.029H549.999L546.43 54.4938H546.421Z" fill="white"/>
<path d="M589.048 29.3033H575.476V1.69356H632.399V29.3033H618.818V181.878H589.048V29.3033Z" fill="white"/>
<path d="M672.648 152.091V99.5326H702.179V152.817C702.179 169.046 693.367 183.572 672.172 183.572H667.404C644.543 183.572 635.492 171.223 635.492 149.904V32.6904C635.492 13.8001 644.543 0 667.166 0H672.172C693.129 0 702.179 11.6226 702.179 29.3033V77.0132H672.648V30.2711C672.648 27.3678 672.172 25.6743 669.554 25.6743C667.413 25.6743 666.461 27.1259 666.461 30.2711V152.091C666.461 155.478 667.413 157.181 669.554 157.181C672.172 157.181 672.648 155.004 672.648 152.091Z" fill="white"/>
<path d="M706.71 1.69356H736.955V71.6906H743.389V1.69356H773.397V181.878H743.389V103.413H736.955V181.878H706.71V1.69356Z" fill="white"/>
<path d="M829.12 1.69356V29.3033H807.687V73.1422H825.788V101.72H807.687V153.794H829.833V181.888H778.145V1.69356H829.11H829.12Z" fill="white"/>
<path d="M864.372 181.878H834.126V1.69356H881.046C891.524 1.69356 899.861 8.47745 899.861 23.2453V65.6228C899.861 77.9713 894.141 82.8197 889.145 84.9971C894.151 87.1745 900.337 92.2649 900.337 101.71V173.159C900.337 176.788 900.813 179.459 901.765 181.152V181.878H871.995C870.805 180.185 870.091 177.765 870.091 174.368V106.8C870.091 104.139 869.616 102.687 866.76 102.687H864.381V181.878H864.372ZM864.372 77.0132H866.751C868.892 77.0132 870.082 75.5616 870.082 72.9003V28.5775C870.082 25.6743 869.606 24.4646 866.989 24.4646H864.372V77.0229V77.0132Z" fill="white"/>
<path d="M934.151 183.581C914.384 183.581 904.619 174.378 904.619 155.73V108.504H934.151V153.552C934.151 156.697 935.103 158.391 937.244 158.391C939.385 158.391 940.575 156.697 940.575 153.31V118.191C940.575 112.375 939.861 109.955 935.331 105.842L919.847 92.2842C909.606 83.5648 905.314 73.6358 905.314 60.068V28.0937C905.314 11.3807 913.889 0 935.56 0H942.469C964.14 0 971.049 11.1388 971.049 25.6743V65.3906H941.993V27.1259C941.993 24.4646 941.041 23.2549 938.9 23.2549C936.759 23.2549 935.807 24.4646 935.807 27.1259V57.8809C935.807 62.7196 936.759 64.4228 940.566 68.0519L955.812 81.61C967.718 91.781 972.248 99.7746 972.248 115.762V151.607C972.248 170.981 962.96 183.572 941.051 183.572H934.142L934.151 183.581Z" fill="white"/>
</svg>
